<svg xmlns="http://www.w3.org/2000/svg" version="1.1" baseProfile="full" width="600" height="400" style="user-select: none; position: absolute; left: 0px; top: 0px;"><path d="M 355.9062 93.647 L 375.3067 79.8949 L 390.3067 79.8949" fill="none" stroke="#c23531" stroke-width="1" paint-order="fill" stroke-opacity="undefined" stroke-dasharray="" stroke-linecap="butt" stroke-linejoin="miter" stroke-miterlimit="10" clip-path="none"></path><path d="M 430.5716 171.4921 L 442.5398 166.0805 L 457.5398 166.0805" fill="none" stroke="#2f4554" stroke-width="1" paint-order="fill" stroke-opacity="undefined" stroke-dasharray="" stroke-linecap="butt" stroke-linejoin="miter" stroke-miterlimit="10" clip-path="none"></path><path d="M 433.8307 263.1016 L 445.7964 267.5054 L 460.7964 267.5054" fill="none" stroke="#61a0a8" stroke-width="1" paint-order="fill" stroke-opacity="undefined" stroke-dasharray="" stroke-linecap="butt" stroke-linejoin="miter" stroke-miterlimit="10" clip-path="none"></path><path d="M 402.3934 317.4756 L 415.1406 327.7051 L 430.1406 327.7051" fill="none" stroke="#d48265" stroke-width="1" paint-order="fill" stroke-opacity="undefined" stroke-dasharray="" stroke-linecap="butt" stroke-linejoin="miter" stroke-miterlimit="10" clip-path="none"></path><path d="M 167.4367 267.0218 L 155.4718 271.8456 L 140.4718 271.8456" fill="none" stroke="#91c7ae" stroke-width="1" paint-order="fill" stroke-opacity="undefined" stroke-dasharray="" stroke-linecap="butt" stroke-linejoin="miter" stroke-miterlimit="10" clip-path="none"></path><path d="M 300 222 L 300 82 A 140 140 0 0 1 402.5104 126.65 L 300 222 Z" fill="#c23531" fill-opacity="1" stroke="none" clip-path="none"></path><path d="M 300 222 L 402.5104 126.65 A 140 140 0 0 1 439.9915 223.545 L 300 222 Z" fill="#2f4554" fill-opacity="1" stroke="none" clip-path="none"></path><path d="M 300 222 L 439.9915 223.545 A 140 140 0 0 1 416.7266 299.2974 L 300 222 Z" fill="#61a0a8" fill-opacity="1" stroke="none" clip-path="none"></path><path d="M 300 222 L 416.7266 299.2974 A 140 140 0 0 1 385.2606 333.0433 L 300 222 Z" fill="#d48265" fill-opacity="1" stroke="none" clip-path="none"></path><path d="M 300 222 L 385.2606 333.0433 A 140 140 0 1 1 300 82 L 300 222 Z" fill="#91c7ae" fill-opacity="1" stroke="none" clip-path="none"></path><text alignment-baseline="middle" x="393.30666237783913" y="79.89487427996157" fill="#c23531" fill-opacity="undefined" stroke="none" clip-path="none" style="font: 12px sans-serif;"><tspan alignment-baseline="middle" text-anchor="start" x="393.30666237783913" y="79.89487427996157">IE</tspan></text><text alignment-baseline="middle" x="460.53975346044484" y="166.0805261213986" fill="#2f4554" fill-opacity="undefined" stroke="none" clip-path="none" style="font: 12px sans-serif;"><tspan alignment-baseline="middle" text-anchor="start" x="460.53975346044484" y="166.0805261213986">Opera</tspan></text><text alignment-baseline="middle" x="463.7963945715196" y="267.505396662056" fill="#61a0a8" fill-opacity="undefined" stroke="none" clip-path="none" style="font: 12px sans-serif;"><tspan alignment-baseline="middle" text-anchor="start" x="463.7963945715196" y="267.505396662056">Safari</tspan></text><text alignment-baseline="middle" x="433.14063710643734" y="327.70511222685474" fill="#d48265" fill-opacity="undefined" stroke="none" clip-path="none" style="font: 12px sans-serif;"><tspan alignment-baseline="middle" text-anchor="start" x="433.14063710643734" y="327.70511222685474">Firefox</tspan></text><text alignment-baseline="middle" x="137.4718031193321" y="271.84561383631313" fill="#91c7ae" fill-opacity="undefined" stroke="none" clip-path="none" style="font: 12px sans-serif;"><tspan alignment-baseline="middle" text-anchor="end" x="137.4718031193321" y="271.84561383631313">Chrome</tspan></text><path d="M -5 -5 L 77.6797 -5 L 77.6797 115 L -5 115 L -5 -5 Z" fill="rgba(0,0,0,0)" fill-opacity="1" stroke="#ccc" stroke-width="0" paint-order="fill" stroke-opacity="1" stroke-dasharray="" stroke-linecap="butt" stroke-linejoin="miter" stroke-miterlimit="10" transform="matrix(1,0,0,1,35,145)" clip-path="none"></path><path d="M 3.5 0 L 21.5 0 A 3.5 3.5 0 0 1 25 3.5 L 25 10.5 A 3.5 3.5 0 0 1 21.5 14 L 3.5 14 A 3.5 3.5 0 0 1 0 10.5 L 0 3.5 A 3.5 3.5 0 0 1 3.5 0 Z" fill="#c23531" fill-opacity="1" stroke="none" transform="matrix(1,0,0,1,35,145)" clip-path="none"></path><text alignment-baseline="middle" x="30" y="7" fill="#333" fill-opacity="1" stroke="none" transform="matrix(1,0,0,1,35,145)" clip-path="none" style="font: 12px sans-serif;"><tspan alignment-baseline="middle" text-anchor="start" x="30" y="7">IE</tspan></text><path d="M 3.5 0 L 21.5 0 A 3.5 3.5 0 0 1 25 3.5 L 25 10.5 A 3.5 3.5 0 0 1 21.5 14 L 3.5 14 A 3.5 3.5 0 0 1 0 10.5 L 0 3.5 A 3.5 3.5 0 0 1 3.5 0 Z" fill="#2f4554" fill-opacity="1" stroke="none" transform="matrix(1,0,0,1,35,169)" clip-path="none"></path><text alignment-baseline="middle" x="30" y="7" fill="#333" fill-opacity="1" stroke="none" transform="matrix(1,0,0,1,35,169)" clip-path="none" style="font: 12px sans-serif;"><tspan alignment-baseline="middle" text-anchor="start" x="30" y="7">Opera</tspan></text><path d="M 3.5 0 L 21.5 0 A 3.5 3.5 0 0 1 25 3.5 L 25 10.5 A 3.5 3.5 0 0 1 21.5 14 L 3.5 14 A 3.5 3.5 0 0 1 0 10.5 L 0 3.5 A 3.5 3.5 0 0 1 3.5 0 Z" fill="#61a0a8" fill-opacity="1" stroke="none" transform="matrix(1,0,0,1,35,193)" clip-path="none"></path><text alignment-baseline="middle" x="30" y="7" fill="#333" fill-opacity="1" stroke="none" transform="matrix(1,0,0,1,35,193)" clip-path="none" style="font: 12px sans-serif;"><tspan alignment-baseline="middle" text-anchor="start" x="30" y="7">Safari</tspan></text><path d="M 3.5 0 L 21.5 0 A 3.5 3.5 0 0 1 25 3.5 L 25 10.5 A 3.5 3.5 0 0 1 21.5 14 L 3.5 14 A 3.5 3.5 0 0 1 0 10.5 L 0 3.5 A 3.5 3.5 0 0 1 3.5 0 Z" fill="#d48265" fill-opacity="1" stroke="none" transform="matrix(1,0,0,1,35,217)" clip-path="none"></path><text alignment-baseline="middle" x="30" y="7" fill="#333" fill-opacity="1" stroke="none" transform="matrix(1,0,0,1,35,217)" clip-path="none" style="font: 12px sans-serif;"><tspan alignment-baseline="middle" text-anchor="start" x="30" y="7">Firefox</tspan></text><path d="M 3.5 0 L 21.5 0 A 3.5 3.5 0 0 1 25 3.5 L 25 10.5 A 3.5 3.5 0 0 1 21.5 14 L 3.5 14 A 3.5 3.5 0 0 1 0 10.5 L 0 3.5 A 3.5 3.5 0 0 1 3.5 0 Z" fill="#91c7ae" fill-opacity="1" stroke="none" transform="matrix(1,0,0,1,35,241)" clip-path="none"></path><text alignment-baseline="middle" x="30" y="7" fill="#333" fill-opacity="1" stroke="none" transform="matrix(1,0,0,1,35,241)" clip-path="none" style="font: 12px sans-serif;"><tspan alignment-baseline="middle" text-anchor="start" x="30" y="7">Chrome</tspan></text><path d="M -33 -5 L 33 -5 L 33 23 L -33 23 L -33 -5 Z" fill="rgba(0,0,0,0)" fill-opacity="1" stroke="#ccc" stroke-width="0" paint-order="fill" stroke-opacity="1" stroke-dasharray="" stroke-linecap="butt" stroke-linejoin="miter" stroke-miterlimit="10" transform="matrix(1,0,0,1,300,30)" clip-path="none"></path><text alignment-baseline="hanging" x="0" y="0" fill="#333" fill-opacity="1" stroke="none" transform="matrix(1,0,0,1,300,30)" clip-path="none" style="font: bolder 18px sans-serif;"><tspan alignment-baseline="hanging" text-anchor="middle" x="0" y="0">Audits</tspan></text></svg>